<svg width="21" height="20" viewBox="0 0 21 20" fill="none" xmlns="http://www.w3.org/2000/svg">
<path d="M3.66178 10.0242C4.10943 7.78608 4.33324 6.66697 5.0728 5.94619C5.20949 5.81297 5.35737 5.69175 5.5148 5.58384C6.36662 5 7.50788 5 9.79042 5H11.2095C13.4921 5 14.6333 5 15.4852 5.58384C15.6426 5.69175 15.7904 5.81297 15.9272 5.94619C16.6667 6.66697 16.8905 7.78608 17.3382 10.0242C17.9808 13.2376 18.3022 14.8442 17.5624 15.9827C17.4285 16.1889 17.2722 16.3796 17.0963 16.5513C16.125 17.5 14.4865 17.5 11.2095 17.5H9.79042C6.51343 17.5 4.87495 17.5 3.90364 16.5513C3.72777 16.3796 3.57143 16.1889 3.4375 15.9827C2.69778 14.8442 3.01912 13.2376 3.66178 10.0242Z" stroke="#FAFAFA" stroke-width="1.25"/>
<path d="M8 5.00002V4.16669C8 2.78598 9.11925 1.66669 10.5 1.66669C11.8807 1.66669 13 2.78598 13 4.16669V5.00002" stroke="#FAFAFA" stroke-width="1.25" stroke-linecap="round"/>
<path d="M8.14258 12.5C8.48577 13.471 9.41183 14.1667 10.5003 14.1667C11.5888 14.1667 12.5149 13.471 12.8581 12.5" stroke="#FAFAFA" stroke-width="1.25" stroke-linecap="round"/>
</svg>
