<svg width="20" height="20" viewBox="0 0 20 20" fill="none" xmlns="http://www.w3.org/2000/svg">
<path d="M9.99984 4.58378L9.5495 5.0172C9.66734 5.13962 9.82992 5.20878 9.99984 5.20878C10.1698 5.20878 10.3323 5.13962 10.4502 5.0172L9.99984 4.58378ZM7.85488 15.2682C6.59183 14.2725 5.21073 13.3002 4.11508 12.0664C3.04085 10.8568 2.2915 9.44534 2.2915 7.61418H1.0415C1.0415 9.83543 1.96692 11.53 3.18044 12.8964C4.37253 14.2388 5.89214 15.3126 7.08102 16.2498L7.85488 15.2682ZM2.2915 7.61418C2.2915 5.82178 3.30431 4.31869 4.6868 3.68675C6.02989 3.07283 7.83455 3.23541 9.5495 5.0172L10.4502 4.15037C8.41525 2.03619 6.05324 1.68775 4.16714 2.54989C2.32043 3.39403 1.0415 5.35412 1.0415 7.61418H2.2915ZM7.08102 16.2498C7.50788 16.5863 7.96612 16.9452 8.4305 17.2165C8.89475 17.4878 9.4245 17.7083 9.99984 17.7083V16.4583C9.74184 16.4583 9.43825 16.3577 9.06117 16.1373C8.68425 15.917 8.29324 15.6138 7.85488 15.2682L7.08102 16.2498ZM12.9187 16.2498C14.1075 15.3126 15.6272 14.2388 16.8193 12.8964C18.0327 11.53 18.9582 9.83543 18.9582 7.61418H17.7082C17.7082 9.44534 16.9588 10.8568 15.8846 12.0664C14.7889 13.3002 13.4078 14.2725 12.1448 15.2682L12.9187 16.2498ZM18.9582 7.61418C18.9582 5.35412 17.6793 3.39403 15.8325 2.54989C13.9464 1.68775 11.5844 2.03619 9.5495 4.15037L10.4502 5.0172C12.1651 3.23541 13.9698 3.07283 15.3128 3.68675C16.6953 4.31869 17.7082 5.82178 17.7082 7.61418H18.9582ZM12.1448 15.2682C11.7064 15.6138 11.3154 15.917 10.9385 16.1373C10.5614 16.3577 10.2578 16.4583 9.99984 16.4583V17.7083C10.5752 17.7083 11.1049 17.4878 11.5692 17.2165C12.0336 16.9452 12.4918 16.5863 12.9187 16.2498L12.1448 15.2682Z" fill="#71717A"/>
</svg>
